<?xml version="1.0" standalone="no"?>
<!DOCTYPE svg PUBLIC "-//W3C//DTD SVG 20010904//EN"
 "http://www.w3.org/TR/2001/REC-SVG-20010904/DTD/svg10.dtd">
<svg version="1.0" xmlns="http://www.w3.org/2000/svg"
 width="512.000000pt" height="512.000000pt" viewBox="0 0 512.000000 512.000000"
 preserveAspectRatio="xMidYMid meet">

<g transform="translate(0.000000,512.000000) scale(0.100000,-0.100000)"
fill="#000000" stroke="none">
<path fill="yellow" d="M2295 5114 c-596 -29 -1047 -99 -1348 -208 -169 -61 -284 -134 -336
-213 l-31 -47 2 -250 3 -249 732 -461 732 -461 1 -800 c0 -829 0 -825 39 -825
25 0 995 300 1006 311 6 6 11 244 13 662 l2 653 722 454 c397 250 727 461 735
468 10 10 13 66 13 245 0 271 -3 281 -92 363 -180 164 -654 286 -1322 339
-174 14 -727 26 -871 19z m820 -219 c424 -29 759 -83 945 -154 178 -68 170
-117 -31 -177 -407 -123 -835 -174 -1464 -174 -616 0 -1154 59 -1460 160 -101
34 -149 59 -164 89 -40 73 286 174 729 227 378 44 1027 57 1445 29z"/>
<path d="M844 2186 c-18 -14 -19 -35 -24 -639 l-5 -624 -260 103 c-143 57
-270 104 -282 104 -37 0 -48 -35 -24 -73 12 -18 197 -261 414 -542 330 -429
396 -510 417 -510 21 0 87 82 417 510 217 281 403 524 414 542 24 38 13 73
-24 73 -12 -1 -139 -47 -282 -104 l-260 -103 -5 624 c-5 604 -6 625 -24 639
-29 21 -443 21 -472 0z"/>
<path d="M4012 2183 c-16 -14 -711 -916 -801 -1039 -19 -26 -21 -35 -12 -53 7
-12 21 -21 36 -21 13 0 137 45 276 100 140 55 257 100 261 100 5 0 8 -279 8
-619 0 -550 2 -621 16 -635 13 -14 49 -16 242 -16 126 0 234 5 242 10 13 8 15
92 18 636 2 588 4 626 20 621 9 -2 127 -48 260 -101 134 -53 254 -96 268 -96
26 0 49 33 38 53 -19 32 -799 1044 -816 1060 -11 9 -24 17 -28 17 -4 0 -17 -8
-28 -17z"/>
</g>
</svg>
