<?xml version="1.0" encoding="UTF-8"?>
<!DOCTYPE svg PUBLIC "-//W3C//DTD SVG 1.1//EN" "http://www.w3.org/Graphics/SVG/1.1/DTD/svg11.dtd">
<svg xmlns="http://www.w3.org/2000/svg" version="1.1" width="177px" height="224px" style="shape-rendering:geometricPrecision; text-rendering:geometricPrecision; image-rendering:optimizeQuality; fill-rule:evenodd; clip-rule:evenodd" xmlns:xlink="http://www.w3.org/1999/xlink">
<g><path style="opacity:0.976" fill="#000000" d="M 90.5,223.5 C 88.5,223.5 86.5,223.5 84.5,223.5C 57.5488,188.043 30.3822,152.709 3,117.5C 1.46109,113.26 2.79443,110.593 7,109.5C 24.9519,116.206 42.7852,123.206 60.5,130.5C 61.3333,88.8373 61.8333,47.1707 62,5.5C 62.5,5 63,4.5 63.5,4C 79.5,3.33333 95.5,3.33333 111.5,4C 112,4.5 112.5,5 113,5.5C 113.167,47.1707 113.667,88.8373 114.5,130.5C 132.215,123.206 150.048,116.206 168,109.5C 171.104,109.788 172.604,111.455 172.5,114.5C 172.378,116.791 171.545,118.791 170,120.5C 143.491,154.863 116.991,189.197 90.5,223.5 Z"/></g>
</svg>
