<?xml version="1.0" standalone="no"?>
<!DOCTYPE svg PUBLIC "-//W3C//DTD SVG 20010904//EN"
 "http://www.w3.org/TR/2001/REC-SVG-20010904/DTD/svg10.dtd">
<svg version="1.0" xmlns="http://www.w3.org/2000/svg"
 width="224.000000pt" height="177.000000pt" viewBox="0 0 224.000000 177.000000"
 preserveAspectRatio="xMidYMid meet">

<g transform="translate(0.000000,177.000000) scale(0.100000,-0.100000)"
fill="#000000" stroke="none">
<path d="M1128 1719 c-10 -5 -18 -20 -18 -32 1 -12 47 -139 104 -282 l103
-260 -624 -5 c-604 -5 -625 -6 -639 -24 -21 -29 -21 -443 0 -472 14 -18 35
-19 639 -24 l624 -5 -103 -260 c-57 -143 -104 -270 -104 -282 0 -37 35 -48 73
-24 18 12 262 197 542 414 429 330 510 396 510 417 0 21 -65 75 -400 333 -536
412 -674 517 -683 517 -4 0 -15 -5 -24 -11z"/>
</g>
</svg>
