<?xml version="1.0" standalone="no"?>
<!DOCTYPE svg PUBLIC "-//W3C//DTD SVG 20010904//EN"
 "http://www.w3.org/TR/2001/REC-SVG-20010904/DTD/svg10.dtd">
<svg version="1.0" xmlns="http://www.w3.org/2000/svg"
 width="224.000000pt" height="177.000000pt" viewBox="0 0 224.000000 177.000000"
 preserveAspectRatio="xMidYMid meet">

<g transform="translate(0.000000,177.000000) scale(0.100000,-0.100000)"
fill="#000000" stroke="none">
<path d="M943 1635 c-76 -57 -318 -243 -538 -412 -334 -258 -400 -312 -400
-333 0 -21 82 -88 510 -417 281 -217 524 -403 542 -414 38 -24 73 -13 73 24
-1 12 -47 139 -104 282 l-103 260 624 5 c604 5 625 6 639 24 21 29 21 443 0
472 -14 18 -35 19 -639 24 l-624 5 103 260 c57 143 104 270 104 282 0 19 -25
43 -44 43 -3 0 -67 -47 -143 -105z"/>
</g>
</svg>
