<?xml version="1.0" encoding="UTF-8"?>
<!DOCTYPE svg PUBLIC "-//W3C//DTD SVG 1.1//EN" "http://www.w3.org/Graphics/SVG/1.1/DTD/svg11.dtd">
<svg xmlns="http://www.w3.org/2000/svg" version="1.1" width="224px" height="177px" style="shape-rendering:geometricPrecision; text-rendering:geometricPrecision; image-rendering:optimizeQuality; fill-rule:evenodd; clip-rule:evenodd" xmlns:xlink="http://www.w3.org/1999/xlink">
<g><path style="opacity:0.976" fill="#000000" d="M -0.5,90.5 C -0.5,88.5 -0.5,86.5 -0.5,84.5C 34.9572,57.5488 70.2906,30.3822 105.5,3C 109.74,1.46109 112.407,2.79443 113.5,7C 106.794,24.9519 99.794,42.7852 92.5,60.5C 134.163,61.3333 175.829,61.8333 217.5,62C 218,62.5 218.5,63 219,63.5C 219.667,79.5 219.667,95.5 219,111.5C 218.5,112 218,112.5 217.5,113C 175.829,113.167 134.163,113.667 92.5,114.5C 99.794,132.215 106.794,150.048 113.5,168C 113.212,171.104 111.545,172.604 108.5,172.5C 106.209,172.378 104.209,171.545 102.5,170C 68.1366,143.491 33.8033,116.991 -0.5,90.5 Z"/></g>
</svg>
