<?xml version="1.0" encoding="UTF-8"?>
<svg version="1.1" xmlns="http://www.w3.org/2000/svg" width="48" height="48">
<path d="M0 0 C2.93423195 1.79646854 4.47205355 2.9441071 6 6 C6.53118252 10.91996928 6.75105553 14.77327597 4.125 19.0625 C0.38214851 22.47509989 -2.60769925 22.32843064 -7.515625 22.29296875 C-10.97198834 21.88537873 -12.68663869 20.53723498 -15 18 C-16.84862688 14.30274625 -16.47587094 10.03538558 -16 6 C-11.95766104 -0.60248696 -7.2842127 -0.85898735 0 0 Z M-6 4 C-6 5.98 -6 7.96 -6 10 C-7.98 10 -9.96 10 -12 10 C-12 10.66 -12 11.32 -12 12 C-10.02 12 -8.04 12 -6 12 C-6 13.98 -6 15.96 -6 18 C-5.34 18 -4.68 18 -4 18 C-4 16.02 -4 14.04 -4 12 C-2.02 12 -0.04 12 2 12 C2 11.34 2 10.68 2 10 C0.02 10 -1.96 10 -4 10 C-4 8.02 -4 6.04 -4 4 C-4.66 4 -5.32 4 -6 4 Z " fill="#000000" transform="translate(39,13)"/>
<path d="M0 0 C1.19496094 -0.00386719 1.19496094 -0.00386719 2.4140625 -0.0078125 C3.24679688 -0.00007812 4.07953125 0.00765625 4.9375 0.015625 C5.77023438 0.00789062 6.60296875 0.00015625 7.4609375 -0.0078125 C8.25757813 -0.00523438 9.05421875 -0.00265625 9.875 0 C10.60589844 0.00225586 11.33679688 0.00451172 12.08984375 0.00683594 C13.9375 0.265625 13.9375 0.265625 15.9375 2.265625 C16.20741906 4.95401885 16.02487357 7.55704436 15.9375 10.265625 C14.9475 10.265625 13.9575 10.265625 12.9375 10.265625 C12.6075 8.285625 12.2775 6.305625 11.9375 4.265625 C7.3175 4.265625 2.6975 4.265625 -2.0625 4.265625 C-2.0625 16.145625 -2.0625 28.025625 -2.0625 40.265625 C2.5575 40.265625 7.1775 40.265625 11.9375 40.265625 C12.2675 38.285625 12.5975 36.305625 12.9375 34.265625 C13.9275 34.265625 14.9175 34.265625 15.9375 34.265625 C16.1328125 40.3203125 16.1328125 40.3203125 15.9375 42.265625 C13.57181778 44.63130722 13.08517774 44.52134204 9.875 44.53125 C8.68003906 44.53511719 8.68003906 44.53511719 7.4609375 44.5390625 C6.62820312 44.53132813 5.79546875 44.52359375 4.9375 44.515625 C3.68839844 44.52722656 3.68839844 44.52722656 2.4140625 44.5390625 C1.61742187 44.53648438 0.82078125 44.53390625 0 44.53125 C-0.73089844 44.52899414 -1.46179688 44.52673828 -2.21484375 44.52441406 C-4.0625 44.265625 -4.0625 44.265625 -6.0625 42.265625 C-6.26256302 39.27600397 -6.34222923 36.3810015 -6.328125 33.390625 C-6.33003845 32.51035645 -6.3319519 31.63008789 -6.33392334 30.72314453 C-6.33528552 28.86034866 -6.33158682 26.99754331 -6.32324219 25.13476562 C-6.31254307 22.27712764 -6.32313632 19.42011834 -6.3359375 16.5625 C-6.33461591 14.75520694 -6.33205353 12.94791427 -6.328125 11.140625 C-6.33217346 10.28227051 -6.33622192 9.42391602 -6.34039307 8.53955078 C-6.2950982 2.83326647 -6.14088339 0.01895334 0 0 Z " fill="#000000" transform="translate(19.0625,1.734375)"/>
</svg>
