<?xml version="1.0" encoding="UTF-8"?>
<svg version="1.1" xmlns="http://www.w3.org/2000/svg" width="48" height="48">
<path d="M0 0 C1.2219104 0.00607269 1.2219104 0.00607269 2.46850586 0.01226807 C3.30438232 0.01035461 4.14025879 0.00844116 5.00146484 0.00646973 C6.77010397 0.00510771 8.53875309 0.0088053 10.30737305 0.01715088 C13.02016579 0.02785031 15.7322963 0.01725631 18.44506836 0.00445557 C20.16121566 0.00577716 21.87736255 0.00833955 23.59350586 0.01226807 C24.40811279 0.0082196 25.22271973 0.00417114 26.06201172 0 C31.80108658 0.04797379 31.80108658 0.04797379 34.03100586 2.27789307 C34.28979492 4.49273682 34.28979492 4.49273682 34.29663086 7.21539307 C34.30049805 8.68105713 34.30049805 8.68105713 34.30444336 10.17633057 C34.29670898 11.19984619 34.28897461 12.22336182 34.28100586 13.27789307 C34.29260742 14.8131665 34.29260742 14.8131665 34.30444336 16.37945557 C34.30186523 17.35656494 34.29928711 18.33367432 34.29663086 19.34039307 C34.294375 20.23886963 34.29211914 21.13734619 34.28979492 22.06304932 C34.03100586 24.27789307 34.03100586 24.27789307 32.03100586 26.27789307 C29.18560444 26.47779534 26.43962802 26.55766282 23.59350586 26.54351807 C22.75762939 26.54543152 21.92175293 26.54734497 21.06054688 26.54931641 C19.29190775 26.55067842 17.52325863 26.54698083 15.75463867 26.53863525 C13.04184592 26.52793582 10.32971542 26.53852983 7.61694336 26.55133057 C5.90079606 26.55000897 4.18464917 26.54744659 2.46850586 26.54351807 C1.24659546 26.54959076 1.24659546 26.54959076 0 26.55578613 C-5.73907486 26.50781235 -5.73907486 26.50781235 -7.96899414 24.27789307 C-8.2277832 22.06304932 -8.2277832 22.06304932 -8.23461914 19.34039307 C-8.23719727 18.36328369 -8.23977539 17.38617432 -8.24243164 16.37945557 C-8.23469727 15.35593994 -8.22696289 14.33242432 -8.21899414 13.27789307 C-8.22672852 12.25437744 -8.23446289 11.23086182 -8.24243164 10.17633057 C-8.23985352 9.19922119 -8.23727539 8.22211182 -8.23461914 7.21539307 C-8.23236328 6.3169165 -8.23010742 5.41843994 -8.2277832 4.49273682 C-7.64308012 -0.51143897 -4.23383999 0.0353913 0 0 Z M-3.8659668 4.59967041 C-5.68540004 7.36788291 -5.36431897 10.0259208 -5.34399414 13.27789307 C-5.35172852 14.51539307 -5.35946289 15.75289307 -5.36743164 17.02789307 C-5.22800051 20.15407688 -5.22800051 20.15407688 -3.8659668 21.95611572 C-1.02133195 23.9382075 1.34495197 23.66681618 4.78100586 23.67633057 C5.43552734 23.67920074 6.09004883 23.68207092 6.7644043 23.68502808 C8.14624905 23.68706674 9.52812279 23.68155052 10.90991211 23.66900635 C13.02385036 23.65294742 15.13587699 23.66885908 17.24975586 23.68804932 C18.59351007 23.68606685 19.9372631 23.68222309 21.28100586 23.67633057 C23.11405273 23.67125488 23.11405273 23.67125488 24.98413086 23.66607666 C27.99324576 23.5218502 27.99324576 23.5218502 29.92797852 21.95611572 C31.74741175 19.18790322 31.42633069 16.52986533 31.40600586 13.27789307 C31.41374023 12.04039307 31.42147461 10.80289307 31.42944336 9.52789307 C31.29001223 6.40170925 31.29001223 6.40170925 29.92797852 4.59967041 C27.08334367 2.61757864 24.71705974 2.88896996 21.28100586 2.87945557 C20.62648438 2.87658539 19.97196289 2.87371521 19.29760742 2.87075806 C17.91576267 2.86871939 16.53388893 2.87423561 15.15209961 2.88677979 C13.03816136 2.90283871 10.92613472 2.88692706 8.81225586 2.86773682 C7.46850164 2.86971929 6.12474862 2.87356305 4.78100586 2.87945557 C3.55897461 2.88283936 2.33694336 2.88622314 1.07788086 2.88970947 C-1.93123404 3.03393593 -1.93123404 3.03393593 -3.8659668 4.59967041 Z " fill="#000000" transform="translate(10.968994140625,10.72210693359375)"/>
<path d="M0 0 C1.875 1.0625 1.875 1.0625 3 3 C3.36760731 5.32817964 3.70241581 7.6618385 4 10 C4.66 10.66 5.32 11.32 6 12 C6 13.32 6 14.64 6 16 C1.125 15.125 1.125 15.125 0 14 C-2.31282351 13.47071924 -4.63721913 13.03666285 -6.96875 12.59765625 C-7.6390625 12.40042969 -8.309375 12.20320313 -9 12 C-10.10647808 9.78704384 -10.19588368 8.45327301 -10.25 6 C-10.27578125 5.29875 -10.3015625 4.5975 -10.328125 3.875 C-10.21984375 3.25625 -10.1115625 2.6375 -10 2 C-6.30513897 -0.46324069 -4.36706908 -0.38991688 0 0 Z M-6 4 C-6 5.65 -6 7.3 -6 9 C-4.35 9 -2.7 9 -1 9 C-1 7.35 -1 5.7 -1 4 C-2.65 4 -4.3 4 -6 4 Z " fill="#000000" transform="translate(34,16)"/>
</svg>
