<?xml version="1.0" encoding="UTF-8"?>
<svg version="1.1" xmlns="http://www.w3.org/2000/svg" width="48" height="48">
<path d="M0 0 C3.80966294 1.02210469 6.38134698 3.41951816 8.5625 6.6875 C8.5625 8.0075 8.5625 9.3275 8.5625 10.6875 C3.6875 9.8125 3.6875 9.8125 2.5625 8.6875 C2.2325 18.2575 1.9025 27.8275 1.5625 37.6875 C0.5725 37.6875 -0.4175 37.6875 -1.4375 37.6875 C-1.7675 28.1175 -2.0975 18.5475 -2.4375 8.6875 C-3.0975 9.3475 -3.7575 10.0075 -4.4375 10.6875 C-5.7575 10.6875 -7.0775 10.6875 -8.4375 10.6875 C-8.1359013 7.16884855 -7.43144038 5.67992548 -5.1875 2.875 C-2.4375 0.6875 -2.4375 0.6875 0 0 Z " fill="#000000" transform="translate(31.4375,5.3125)"/>
<path d="M0 0 C3.5625 0.1875 3.5625 0.1875 5.5625 2.1875 C5.8125 5.1875 5.8125 5.1875 5.5625 8.1875 C4.9025 8.8475 4.2425 9.5075 3.5625 10.1875 C4.2225 10.5175 4.8825 10.8475 5.5625 11.1875 C5.5625 12.1775 5.5625 13.1675 5.5625 14.1875 C2.2625 14.1875 -1.0375 14.1875 -4.4375 14.1875 C-4.4375 12.5375 -4.4375 10.8875 -4.4375 9.1875 C-2 7.5 -2 7.5 0.5625 6.1875 C0.8925 5.5275 1.2225 4.8675 1.5625 4.1875 C0.5725 4.8475 -0.4175 5.5075 -1.4375 6.1875 C-2.4275 6.1875 -3.4175 6.1875 -4.4375 6.1875 C-4.480221 4.52138095 -4.47813832 2.85367115 -4.4375 1.1875 C-3.4375 0.1875 -3.4375 0.1875 0 0 Z " fill="#000000" transform="translate(12.4375,7.8125)"/>
<path d="M0 0 C1.65 0 3.3 0 5 0 C5 4.62 5 9.24 5 14 C4.01 14 3.02 14 2 14 C2 10.7 2 7.4 2 4 C1.01 4 0.02 4 -1 4 C-0.67 2.68 -0.34 1.36 0 0 Z " fill="#000000" transform="translate(10,27)"/>
</svg>
