<?xml version="1.0" encoding="UTF-8"?>
<svg version="1.1" xmlns="http://www.w3.org/2000/svg" width="48" height="48">
<path d="M0 0 C0.99 0 1.98 0 3 0 C3.33 9.9 3.66 19.8 4 30 C4.66 29.34 5.32 28.68 6 28 C7.32 28 8.64 28 10 28 C9.6984013 31.51865145 8.99394038 33.00757452 6.75 35.8125 C4 38 4 38 1.5625 38.6875 C-2.24716294 37.66539531 -4.81884698 35.26798184 -7 32 C-7 30.68 -7 29.36 -7 28 C-2.125 28.875 -2.125 28.875 -1 30 C-0.67 20.1 -0.34 10.2 0 0 Z " fill="#000000" transform="translate(31,5)"/>
<path d="M0 0 C1.859375 0.1953125 1.859375 0.1953125 4 1 C5.265625 3.1796875 5.265625 3.1796875 6.25 5.875 C6.58515625 6.75929688 6.9203125 7.64359375 7.265625 8.5546875 C8 11 8 11 8 14 C6.68 14 5.36 14 4 14 C4 13.34 4 12.68 4 12 C2.35 12 0.7 12 -1 12 C-1 12.66 -1 13.32 -1 14 C-2.32 14 -3.64 14 -5 14 C-4.46515599 8.65155992 -2.53309233 4.64203897 0 0 Z M1 7 C2 9 2 9 2 9 Z " fill="#000000" transform="translate(13,27)"/>
<path d="M0 0 C3.63 0 7.26 0 11 0 C10.02745 4.86275001 8.82739031 7.07813602 6 11 C7.65 11 9.3 11 11 11 C11 11.99 11 12.98 11 14 C7.37 14 3.74 14 0 14 C0.97255 9.13724999 2.17260969 6.92186398 5 3 C3.35 3 1.7 3 0 3 C0 2.01 0 1.02 0 0 Z " fill="#000000" transform="translate(9,8)"/>
</svg>
