<?xml version="1.0" encoding="UTF-8"?>
<svg version="1.1" xmlns="http://www.w3.org/2000/svg" width="48" height="48">
<path d="M0 0 C11.88 0 23.76 0 36 0 C36 8 36 8 34.13671875 10.4609375 C32.92435547 11.40839844 32.92435547 11.40839844 31.6875 12.375 C30.88699219 13.02210937 30.08648437 13.66921875 29.26171875 14.3359375 C27.54020635 15.60254248 25.77831031 16.81445979 24 18 C23.566875 19.670625 23.566875 19.670625 23.125 21.375 C21.83255542 25.53954366 20.70259117 26.79607669 17 29 C15.68 29 14.36 29 13 29 C13.05542969 28.31035156 13.11085938 27.62070312 13.16796875 26.91015625 C13.20203276 21.94362333 12.97155978 19.05724064 9.51953125 15.30078125 C6.74885443 13.07492057 3.93757917 10.99866937 1 9 C0.67 8.67 0.34 8.34 0 8 C0 5.36 0 2.72 0 0 Z M4 3 C5.14331071 7.57324283 6.12035262 8.37068821 9.6875 11.25 C10.53699219 11.95640625 11.38648438 12.6628125 12.26171875 13.390625 C15.59002387 15.3467758 17.19797504 15.63122422 21 15 C24.07964749 13.18383346 24.07964749 13.18383346 26.875 10.6875 C27.84179688 9.88699219 28.80859375 9.08648437 29.8046875 8.26171875 C32.34824707 6.16654323 32.34824707 6.16654323 32 3 C22.76 3 13.52 3 4 3 Z M16 18 C16 19.65 16 21.3 16 23 C17.32 22.34 18.64 21.68 20 21 C20 20.01 20 19.02 20 18 C18.68 18 17.36 18 16 18 Z " fill="#000000" transform="translate(6,14)"/>
<path d="M0 0 C2.5625 0.3125 2.5625 0.3125 4.375 1.5625 C5.5625 3.3125 5.5625 3.3125 5.5625 7.3125 C4.675625 7.126875 3.78875 6.94125 2.875 6.75 C-0.28928811 6.33207516 -2.38589642 6.50472258 -5.4375 7.3125 C-4.3713843 0.56043388 -4.3713843 0.56043388 0 0 Z " fill="#000000" transform="translate(31.4375,4.6875)"/>
<path d="M0 0 C0.886875 0.185625 1.77375 0.37125 2.6875 0.5625 C5.85178811 0.98042484 7.94839642 0.80777742 11 0 C10.25 4.75 10.25 4.75 8 7 C5.11693182 7.36962413 3.60905713 7.4200394 1.1875 5.75 C0 4 0 4 0 0 Z " fill="#000000" transform="translate(11,5)"/>
</svg>
