<?xml version="1.0" encoding="UTF-8"?>
<svg version="1.1" xmlns="http://www.w3.org/2000/svg" width="48" height="48">
<path d="M0 0 C0.33 1.32 0.66 2.64 1 4 C2.37285156 3.96519531 2.37285156 3.96519531 3.7734375 3.9296875 C4.96195313 3.91164063 6.15046875 3.89359375 7.375 3.875 C8.55835937 3.85179687 9.74171875 3.82859375 10.9609375 3.8046875 C14 4 14 4 16 6 C16.25878906 8.85742188 16.25878906 8.85742188 16.265625 12.46875 C16.26949219 14.40814453 16.26949219 14.40814453 16.2734375 16.38671875 C16.26715332 17.39871338 16.26715332 17.39871338 16.26074219 18.43115234 C16.2500407 20.49216157 16.26063943 22.55229919 16.2734375 24.61328125 C16.27085938 25.90621094 16.26828125 27.19914062 16.265625 28.53125 C16.26336914 29.72298828 16.26111328 30.91472656 16.25878906 32.14257812 C16 35 16 35 14 37 C10.9609375 37.1953125 10.9609375 37.1953125 7.375 37.125 C5.59222656 37.09792969 5.59222656 37.09792969 3.7734375 37.0703125 C2.40058594 37.03550781 2.40058594 37.03550781 1 37 C0.67 37.99 0.34 38.98 0 40 C-7.30418687 40.42965805 -13.9775939 38.99019732 -21 37 C-22 36 -22 36 -22.11352539 32.94897461 C-22.11336634 31.60008729 -22.10767612 30.25119386 -22.09765625 28.90234375 C-22.0962413 28.19348526 -22.09482635 27.48462677 -22.09336853 26.75428772 C-22.08775443 24.48198288 -22.07519963 22.20977525 -22.0625 19.9375 C-22.05748681 18.40039204 -22.05292359 16.86328255 -22.04882812 15.32617188 C-22.03778042 11.55074358 -22.02050641 7.77538829 -22 4 C-20.55369933 3.5133889 -19.10701014 3.02793247 -17.66015625 2.54296875 C-16.85457275 2.27250732 -16.04898926 2.0020459 -15.21899414 1.72338867 C-10.02347467 0.02965733 -5.42411697 -0.09193419 0 0 Z M-12.1875 4.875 C-13.47720703 5.11863281 -13.47720703 5.11863281 -14.79296875 5.3671875 C-17.18256383 5.8593468 -17.18256383 5.8593468 -19 8 C-19.31108497 10.489611 -19.31108497 10.489611 -19.265625 13.375 C-19.26820312 14.44234375 -19.27078125 15.5096875 -19.2734375 16.609375 C-19.26570313 17.72828125 -19.25796875 18.8471875 -19.25 20 C-19.25773437 21.11890625 -19.26546875 22.2378125 -19.2734375 23.390625 C-19.27085938 24.45796875 -19.26828125 25.5253125 -19.265625 26.625 C-19.26336914 27.60726563 -19.26111328 28.58953125 -19.25878906 29.6015625 C-19.23372863 32.18438497 -19.23372863 32.18438497 -17 34 C-14.74417102 34.68358541 -14.74417102 34.68358541 -12.1875 35.125 C-11.33542969 35.29257812 -10.48335937 35.46015625 -9.60546875 35.6328125 C-6.61335676 36.11629211 -6.61335676 36.11629211 -2 36 C-2 25.44 -2 14.88 -2 4 C-5.72607599 4 -8.60728876 4.17087374 -12.1875 4.875 Z M1 7 C1 15.91 1 24.82 1 34 C3.97 34 6.94 34 10 34 C13.26849035 30.73150965 13.38130428 30.49716026 13.3984375 26.21875 C13.40230469 25.29449219 13.40617187 24.37023437 13.41015625 23.41796875 C13.39275391 21.97357422 13.39275391 21.97357422 13.375 20.5 C13.38660156 19.53707031 13.39820313 18.57414062 13.41015625 17.58203125 C13.40435547 16.19564453 13.40435547 16.19564453 13.3984375 14.78125 C13.39505371 13.93626953 13.39166992 13.09128906 13.38818359 12.22070312 C13.14392314 9.56913558 13.14392314 9.56913558 10 7 C7.03 7 4.06 7 1 7 Z " fill="#000000" transform="translate(27,4)"/>
<path d="M0 0 C1.32 0 2.64 0 4 0 C4.66 0.66 5.32 1.32 6 2 C6.33 1.34 6.66 0.68 7 0 C8.32 0 9.64 0 11 0 C10.47731534 2.76276177 9.89130413 5.3260876 9 8 C9.99 9.485 9.99 9.485 11 11 C10.625 13.1875 10.625 13.1875 10 15 C9.2575 14.62875 8.515 14.2575 7.75 13.875 C5.05716353 12.70484137 5.05716353 12.70484137 2.6875 13.875 C1.8521875 14.431875 1.8521875 14.431875 1 15 C0.375 13.25 0.375 13.25 0 11 C0.350625 10.34 0.70125 9.68 1.0625 9 C1.371875 8.34 1.68125 7.68 2 7 C1.16666667 4.91666667 1.16666667 4.91666667 0 3 C0 2.01 0 1.02 0 0 Z " fill="#000000" transform="translate(11,17)"/>
<path d="M0 0 C2.31 0 4.62 0 7 0 C7 0.99 7 1.98 7 3 C4.69 3 2.38 3 0 3 C0 2.01 0 1.02 0 0 Z " fill="#000000" transform="translate(30,31)"/>
<path d="M0 0 C2.31 0 4.62 0 7 0 C7 0.99 7 1.98 7 3 C4.69 3 2.38 3 0 3 C0 2.01 0 1.02 0 0 Z " fill="#000000" transform="translate(30,23)"/>
<path d="M0 0 C2.31 0 4.62 0 7 0 C7 0.99 7 1.98 7 3 C4.69 3 2.38 3 0 3 C0 2.01 0 1.02 0 0 Z " fill="#000000" transform="translate(30,15)"/>
</svg>
