<?xml version="1.0" encoding="UTF-8"?>
<svg version="1.1" xmlns="http://www.w3.org/2000/svg" width="48" height="48">
<path d="M0 0 C11.88 0 23.76 0 36 0 C36 10 36 10 34.13671875 12.65625 C33.32847656 13.2646875 32.52023438 13.873125 31.6875 14.5 C30.88699219 15.1290625 30.08648437 15.758125 29.26171875 16.40625 C23.79889426 20.25570145 23.79889426 20.25570145 19.8125 20.125 C18.554375 20.08375 17.29625 20.0425 16 20 C16 23.3 16 26.6 16 30 C19.16666667 28.16666667 19.16666667 28.16666667 21 25 C21.66 25.66 22.32 26.32 23 27 C22.90638263 30.55746019 22.22527151 31.77472849 19.6875 34.3125 C17 36 17 36 13 36 C13.05542969 34.94941406 13.11085938 33.89882813 13.16796875 32.81640625 C13.39007711 24.28326887 13.39007711 24.28326887 9.51953125 16.96875 C6.7662793 14.7746967 4.00458065 12.83032208 1 11 C0.67 10.67 0.34 10.34 0 10 C0 6.7 0 3.4 0 0 Z M3 3 C4.92255661 8.76766983 5.34567183 9.89157681 9.75 13.375 C10.59046875 14.06335937 11.4309375 14.75171875 12.296875 15.4609375 C15.59900826 17.34105384 17.25353287 17.6027135 21 17 C24.04649829 15.25534612 24.04649829 15.25534612 26.8125 12.8125 C27.76769531 12.03519531 28.72289063 11.25789063 29.70703125 10.45703125 C32.46997394 7.92793904 32.46997394 7.92793904 33 3 C23.1 3 13.2 3 3 3 Z " fill="#000000" transform="translate(6,6)"/>
<path d="M0 0 C3.68754757 0.49831724 5.60490662 1.10067643 8 4 C10.46800047 2.84826645 12.04783565 1.95216435 14 0 C15.32 0 16.64 0 18 0 C17.50168276 3.68754757 16.89932357 5.60490662 14 8 C15.15173355 10.46800047 16.04783565 12.04783565 18 14 C18 15.32 18 16.64 18 18 C14.31245243 17.50168276 12.39509338 16.89932357 10 14 C7.53199953 15.15173355 5.95216435 16.04783565 4 18 C2.68 18 1.36 18 0 18 C0.49831724 14.31245243 1.10067643 12.39509338 4 10 C2.84826645 7.53199953 1.95216435 5.95216435 0 4 C0 2.68 0 1.36 0 0 Z " fill="#000000" transform="translate(28,28)"/>
</svg>
