<?xml version="1.0" encoding="UTF-8"?>
<svg version="1.1" xmlns="http://www.w3.org/2000/svg" width="48" height="48">
<path d="M0 0 C2.93423195 1.79646854 4.47205355 2.9441071 6 6 C6.53118252 10.91996928 6.75105553 14.77327597 4.125 19.0625 C0.38214851 22.47509989 -2.60769925 22.32843064 -7.515625 22.29296875 C-10.97198834 21.88537873 -12.68663869 20.53723498 -15 18 C-16.84862688 14.30274625 -16.47587094 10.03538558 -16 6 C-11.95766104 -0.60248696 -7.2842127 -0.85898735 0 0 Z M-12 10 C-12 10.66 -12 11.32 -12 12 C-7.38 12 -2.76 12 2 12 C2 11.34 2 10.68 2 10 C-2.62 10 -7.24 10 -12 10 Z " fill="#000000" transform="translate(29,18)"/>
<path d="M0 0 C1.28753174 0.00607269 1.28753174 0.00607269 2.60107422 0.01226807 C3.92147705 0.00939789 3.92147705 0.00939789 5.26855469 0.00646973 C7.13135056 0.00510755 8.99415591 0.00880625 10.85693359 0.01715088 C13.71457158 0.02785 16.57158088 0.01725675 19.42919922 0.00445557 C21.23649228 0.00577716 23.04378495 0.00833954 24.85107422 0.01226807 C25.70942871 0.0082196 26.5677832 0.00417114 27.45214844 0 C33.49615677 0.04797562 33.49615677 0.04797562 35.72607422 2.27789307 C35.98486328 4.12554932 35.98486328 4.12554932 35.99169922 6.34039307 C35.99556641 7.535354 35.99556641 7.535354 35.99951172 8.75445557 C35.99177734 9.58718994 35.98404297 10.41992432 35.97607422 11.27789307 C35.98767578 12.52699463 35.98767578 12.52699463 35.99951172 13.80133057 C35.99693359 14.59797119 35.99435547 15.39461182 35.99169922 16.21539307 C35.98944336 16.9462915 35.9871875 17.67718994 35.98486328 18.43023682 C35.72607422 20.27789307 35.72607422 20.27789307 33.72607422 22.27789307 C31.03768037 22.54781213 28.43465486 22.36526664 25.72607422 22.27789307 C25.72607422 21.28789307 25.72607422 20.29789307 25.72607422 19.27789307 C27.70607422 18.94789307 29.68607422 18.61789307 31.72607422 18.27789307 C31.72607422 13.65789307 31.72607422 9.03789307 31.72607422 4.27789307 C19.84607422 4.27789307 7.96607422 4.27789307 -4.27392578 4.27789307 C-4.27392578 8.89789307 -4.27392578 13.51789307 -4.27392578 18.27789307 C-2.29392578 18.60789307 -0.31392578 18.93789307 1.72607422 19.27789307 C1.72607422 20.26789307 1.72607422 21.25789307 1.72607422 22.27789307 C-4.32861328 22.47320557 -4.32861328 22.47320557 -6.27392578 22.27789307 C-8.639608 19.91221085 -8.52964283 19.42557081 -8.53955078 16.21539307 C-8.54212891 15.41875244 -8.54470703 14.62211182 -8.54736328 13.80133057 C-8.53962891 12.96859619 -8.53189453 12.13586182 -8.52392578 11.27789307 C-8.53166016 10.44515869 -8.53939453 9.61242432 -8.54736328 8.75445557 C-8.54478516 7.95781494 -8.54220703 7.16117432 -8.53955078 6.34039307 C-8.53729492 5.60949463 -8.53503906 4.87859619 -8.53271484 4.12554932 C-7.85457241 -0.71613173 -3.97219783 0.03153018 0 0 Z " fill="#000000" transform="translate(10.27392578125,7.72210693359375)"/>
</svg>
