<?xml version="1.0" encoding="UTF-8"?>
<svg version="1.1" xmlns="http://www.w3.org/2000/svg" width="48" height="48">
<path d="M0 0 C1.32 0 2.64 0 4 0 C4.33 6.6 4.66 13.2 5 20 C6.65 19.67 8.3 19.34 10 19 C9.65657251 22.09084737 8.74044345 23.32444569 6.75 25.8125 C4 28 4 28 1.5 28.125 C-1.79337016 26.64298343 -3.69820467 24.76215439 -6 22 C-6 21.01 -6 20.02 -6 19 C-4.35 19.33 -2.7 19.66 -1 20 C-0.67 13.4 -0.34 6.8 0 0 Z " fill="#000000" transform="translate(22,6)"/>
<path d="M0 0 C0.99 0 1.98 0 3 0 C3.33 2.31 3.66 4.62 4 7 C13.24 7 22.48 7 32 7 C32.33 4.69 32.66 2.38 33 0 C33.99 0 34.98 0 36 0 C36.05399736 1.45792884 36.09279177 2.91642712 36.125 4.375 C36.14820313 5.18710937 36.17140625 5.99921875 36.1953125 6.8359375 C36 9 36 9 34 11 C30.8671875 11.25878906 30.8671875 11.25878906 26.875 11.265625 C26.1722998 11.26753845 25.46959961 11.2694519 24.74560547 11.27142334 C23.25943646 11.27278475 21.77325555 11.26909132 20.28710938 11.26074219 C18.00884354 11.25004154 15.73136623 11.26063839 13.453125 11.2734375 C12.01041492 11.2721159 10.56770534 11.26955349 9.125 11.265625 C7.80757812 11.26336914 6.49015625 11.26111328 5.1328125 11.25878906 C2 11 2 11 0 9 C-0.1953125 6.8359375 -0.1953125 6.8359375 -0.125 4.375 C-0.10695313 3.55773438 -0.08890625 2.74046875 -0.0703125 1.8984375 C-0.04710937 1.27195313 -0.02390625 0.64546875 0 0 Z " fill="#000000" transform="translate(6,31)"/>
</svg>
