<?xml version="1.0" encoding="UTF-8"?>
<svg version="1.1" xmlns="http://www.w3.org/2000/svg" width="48" height="48">
<path d="M0 0 C7.56280675 0.20607103 11.19242644 2.75283381 16.28710938 8.08325195 C18.64086232 10.8544066 19.56900419 12.63565917 19.89135742 16.27783203 C19.79209961 17.13634766 19.6928418 17.99486328 19.59057617 18.87939453 C20.25057617 18.87939453 20.91057617 18.87939453 21.59057617 18.87939453 C21.59057617 20.85939453 21.59057617 22.83939453 21.59057617 24.87939453 C20.60057617 24.87939453 19.61057617 24.87939453 18.59057617 24.87939453 C18.59057617 23.88939453 18.59057617 22.89939453 18.59057617 21.87939453 C8.69057617 21.87939453 -1.20942383 21.87939453 -11.40942383 21.87939453 C-11.40942383 25.17939453 -11.40942383 28.47939453 -11.40942383 31.87939453 C-2.16942383 31.87939453 7.07057617 31.87939453 16.59057617 31.87939453 C16.59057617 32.53939453 16.59057617 33.19939453 16.59057617 33.87939453 C13.56288302 34.74050969 10.7479098 35.06170346 7.60620117 35.19580078 C6.67163086 35.23769531 5.73706055 35.27958984 4.77416992 35.32275391 C3.80608398 35.36207031 2.83799805 35.40138672 1.84057617 35.44189453 C0.85702148 35.48507813 -0.1265332 35.52826172 -1.13989258 35.57275391 C-3.56293658 35.67861505 -5.98607923 35.78069624 -8.40942383 35.87939453 C-6.83174467 37.45707369 -5.19414356 37.04348327 -3.00708008 37.09033203 C-2.11698242 37.11869141 -1.22688477 37.14705078 -0.30981445 37.17626953 C1.57801013 37.22823993 3.46606172 37.27254491 5.35424805 37.30908203 C6.69132812 37.35548828 6.69132812 37.35548828 8.05541992 37.40283203 C8.87647217 37.42265137 9.69752441 37.4424707 10.54345703 37.46289062 C12.59057617 37.87939453 12.59057617 37.87939453 14.59057617 40.87939453 C10.27809008 40.9082599 5.96562855 40.92614708 1.65307617 40.94189453 C0.42137695 40.95027344 -0.81032227 40.95865234 -2.0793457 40.96728516 C-3.24916992 40.97050781 -4.41899414 40.97373047 -5.62426758 40.97705078 C-7.25029907 40.98490601 -7.25029907 40.98490601 -8.90917969 40.99291992 C-11.40942383 40.87939453 -11.40942383 40.87939453 -12.40942383 39.87939453 C-12.45006215 38.21322338 -12.45214483 36.54551358 -12.40942383 34.87939453 C-13.06942383 34.87939453 -13.72942383 34.87939453 -14.40942383 34.87939453 C-14.40942383 29.59939453 -14.40942383 24.31939453 -14.40942383 18.87939453 C-13.74942383 18.87939453 -13.08942383 18.87939453 -12.40942383 18.87939453 C-12.42102539 17.66380859 -12.43262695 16.44822266 -12.44458008 15.19580078 C-12.45395661 13.61116689 -12.46305696 12.02653135 -12.47192383 10.44189453 C-12.48449219 9.23823242 -12.48449219 9.23823242 -12.49731445 8.01025391 C-12.50593813 5.96644232 -12.46170533 3.92255551 -12.40942383 1.87939453 C-9.87408146 -0.65594784 -3.49935203 0.09014031 0 0 Z M-9.40942383 5.87939453 C-9.40942383 10.16939453 -9.40942383 14.45939453 -9.40942383 18.87939453 C-0.82942383 18.87939453 7.75057617 18.87939453 16.59057617 18.87939453 C16.59057617 18.21939453 16.59057617 17.55939453 16.59057617 16.87939453 C12.63057617 16.54939453 8.67057617 16.21939453 4.59057617 15.87939453 C4.26057617 11.91939453 3.93057617 7.95939453 3.59057617 3.87939453 C1.81682617 3.83814453 0.04307617 3.79689453 -1.78442383 3.75439453 C-2.7821582 3.73119141 -3.77989258 3.70798828 -4.80786133 3.68408203 C-7.57204556 3.60722605 -7.57204556 3.60722605 -9.40942383 5.87939453 Z M6.59057617 7.87939453 C6.92057617 9.52939453 7.25057617 11.17939453 7.59057617 12.87939453 C9.24057617 13.20939453 10.89057617 13.53939453 12.59057617 13.87939453 C10.94888089 11.85884649 9.28145839 9.85896396 7.59057617 7.87939453 C7.26057617 7.87939453 6.93057617 7.87939453 6.59057617 7.87939453 Z " fill="#000000" transform="translate(20.409423828125,3.12060546875)"/>
<path d="M0 0 C0.99 0 1.98 0 3 0 C3.33 2.97 3.66 5.94 4 9 C5.32 9 6.64 9 8 9 C7.64005447 11.6635969 7.28838998 13.58183452 5.75 15.8125 C3.29122834 17.4809522 1.91471407 17.49763411 -1 17 C-3.3125 15.25 -3.3125 15.25 -5 13 C-5 11.68 -5 10.36 -5 9 C-3.68 9 -2.36 9 -1 9 C-0.67 6.03 -0.34 3.06 0 0 Z " fill="#000000" transform="translate(39,29)"/>
<path d="M0 0 C2.5 0.125 2.5 0.125 3.5 1.125 C3.625 4.125 3.625 4.125 3.5 7.125 C2.5 8.125 2.5 8.125 0 8.25 C-2.5 8.125 -2.5 8.125 -3.5 7.125 C-3.625 4.125 -3.625 4.125 -3.5 1.125 C-2.5 0.125 -2.5 0.125 0 0 Z M-0.5 3.125 C0.5 5.125 0.5 5.125 0.5 5.125 Z " fill="#000000" transform="translate(26.5,25.875)"/>
<path d="M0 0 C1.98 0 3.96 0 6 0 C6 2.64 6 5.28 6 8 C4.02 8 2.04 8 0 8 C0 5.36 0 2.72 0 0 Z " fill="#000000" transform="translate(16,26)"/>
<path d="M0 0 C1.98 0 3.96 0 6 0 C6 2.64 6 5.28 6 8 C4.02 8 2.04 8 0 8 C0 5.36 0 2.72 0 0 Z " fill="#000000" transform="translate(31,26)"/>
<path d="M0 0 C0.66 0 1.32 0 2 0 C2 2.64 2 5.28 2 8 C0.35 8 -1.3 8 -3 8 C-3 7.01 -3 6.02 -3 5 C-2.01 5 -1.02 5 0 5 C0 3.35 0 1.7 0 0 Z " fill="#000000" transform="translate(13,26)"/>
</svg>
