<?xml version="1.0" encoding="UTF-8"?>
<svg version="1.1" xmlns="http://www.w3.org/2000/svg" width="48" height="48">
<path d="M0 0 C0.99 0 1.98 0 3 0 C3.33 6.6 3.66 13.2 4 20 C4.66 19.34 5.32 18.68 6 18 C7.32 18 8.64 18 10 18 C9.6984013 21.51865145 8.99394038 23.00757452 6.75 25.8125 C4 28 4 28 1.5625 28.6875 C-2.24716294 27.66539531 -4.81884698 25.26798184 -7 22 C-7 20.68 -7 19.36 -7 18 C-2.125 18.875 -2.125 18.875 -1 20 C-0.67 13.4 -0.34 6.8 0 0 Z " fill="#000000" transform="translate(32,5)"/>
<path d="M0 0 C7.26 0 14.52 0 22 0 C22 0.99 22 1.98 22 3 C14.74 3 7.48 3 0 3 C0 2.01 0 1.02 0 0 Z " fill="#000000" transform="translate(6,38)"/>
<path d="M0 0 C5.94 0 11.88 0 18 0 C18 0.99 18 1.98 18 3 C12.06 3 6.12 3 0 3 C0 2.01 0 1.02 0 0 Z " fill="#000000" transform="translate(6,30)"/>
<path d="M0 0 C4.62 0 9.24 0 14 0 C14 0.99 14 1.98 14 3 C9.38 3 4.76 3 0 3 C0 2.01 0 1.02 0 0 Z " fill="#000000" transform="translate(6,22)"/>
<path d="M0 0 C3.3 0 6.6 0 10 0 C10 0.99 10 1.98 10 3 C6.7 3 3.4 3 0 3 C0 2.01 0 1.02 0 0 Z " fill="#000000" transform="translate(6,14)"/>
<path d="M0 0 C1.98 0 3.96 0 6 0 C6 0.99 6 1.98 6 3 C4.02 3 2.04 3 0 3 C0 2.01 0 1.02 0 0 Z " fill="#000000" transform="translate(6,6)"/>
</svg>
