<?xml version="1.0" encoding="UTF-8"?>
<svg version="1.1" xmlns="http://www.w3.org/2000/svg" width="48" height="48">
<path d="M0 0 C11.88 0 23.76 0 36 0 C36 10 36 10 34.13671875 12.65625 C33.32847656 13.2646875 32.52023438 13.873125 31.6875 14.5 C30.88699219 15.1290625 30.08648437 15.758125 29.26171875 16.40625 C27.52551784 17.62968691 25.76723868 18.82184088 24 20 C23.64166969 22.49585904 23.64166969 22.49585904 23.6875 25.3125 C23.36279826 30.46714005 23.36279826 30.46714005 21.75 32.8359375 C18.67956988 35.49185955 17.10165288 36 13 36 C13.05542969 34.94941406 13.11085938 33.89882813 13.16796875 32.81640625 C13.39007711 24.28326887 13.39007711 24.28326887 9.51953125 16.96875 C6.7662793 14.7746967 4.00458065 12.83032208 1 11 C0.67 10.67 0.34 10.34 0 10 C0 6.7 0 3.4 0 0 Z M3 3 C4.92255661 8.76766983 5.34567183 9.89157681 9.75 13.375 C10.59046875 14.06335937 11.4309375 14.75171875 12.296875 15.4609375 C15.59900826 17.34105384 17.25353287 17.6027135 21 17 C24.04649829 15.25534612 24.04649829 15.25534612 26.8125 12.8125 C27.76769531 12.03519531 28.72289063 11.25789063 29.70703125 10.45703125 C32.46997394 7.92793904 32.46997394 7.92793904 33 3 C23.1 3 13.2 3 3 3 Z M16 20 C16 23.3 16 26.6 16 30 C17.32 29.34 18.64 28.68 20 28 C20 25.36 20 22.72 20 20 C18.68 20 17.36 20 16 20 Z " fill="#000000" transform="translate(6,6)"/>
</svg>
