<?xml version="1.0" encoding="UTF-8"?>
<svg version="1.1" xmlns="http://www.w3.org/2000/svg" width="48" height="48">
<path d="M0 0 C10.89 0 21.78 0 33 0 C33 10 33 10 30.62890625 12.8828125 C29.61699219 13.62273438 28.60507812 14.36265625 27.5625 15.125 C23.60508579 18.09955092 23.60508579 18.09955092 21.22265625 22.23046875 C21.13248294 24.15296382 21.06520352 26.07649616 21 28 C18.6875 31 18.6875 31 16 33 C14.68 33 13.36 33 12 33 C12.05542969 32.26136719 12.11085938 31.52273437 12.16796875 30.76171875 C12.20148344 25.4865058 12.0388898 22.19536855 8.484375 18.10546875 C6.51733245 16.26227345 4.49673637 14.63437334 2.37109375 12.9609375 C0 10 0 10 0 0 Z M3 3 C4.77742346 8.33227038 5.27331593 9.79902742 9 13.375 C9.70125 14.06335937 10.4025 14.75171875 11.125 15.4609375 C12.85335637 17.21148822 12.85335637 17.21148822 15 17 C15 20.3 15 23.6 15 27 C15.99 26.34 16.98 25.68 18 25 C18.020625 23.824375 18.04125 22.64875 18.0625 21.4375 C18.30976832 18.12048598 18.89708491 17.10774762 21.24609375 14.6484375 C23.04891573 13.11923531 24.8832359 11.62623574 26.75 10.17578125 C29.50861133 7.92076159 29.50861133 7.92076159 30 3 C21.09 3 12.18 3 3 3 Z " fill="#000000" transform="translate(5,7)"/>
<path d="M0 0 C3.80966294 1.02210469 6.38134698 3.41951816 8.5625 6.6875 C8.5625 8.0075 8.5625 9.3275 8.5625 10.6875 C2.9525 10.6875 -2.6575 10.6875 -8.4375 10.6875 C-7.33161922 5.15809611 -5.72828789 1.61567094 0 0 Z M-0.4375 5.6875 C-0.7675 6.3475 -1.0975 7.0075 -1.4375 7.6875 C-0.4475 7.3575 0.5425 7.0275 1.5625 6.6875 C0.9025 6.3575 0.2425 6.0275 -0.4375 5.6875 Z " fill="#000000" transform="translate(32.4375,32.3125)"/>
</svg>
