<?xml version="1.0" encoding="UTF-8"?>
<svg version="1.1" xmlns="http://www.w3.org/2000/svg" width="48" height="48">
<path d="M0 0 C11.88 0 23.76 0 36 0 C36 10 36 10 34.13671875 12.65625 C33.32847656 13.2646875 32.52023438 13.873125 31.6875 14.5 C30.88699219 15.1290625 30.08648437 15.758125 29.26171875 16.40625 C27.52551784 17.62968691 25.76723868 18.82184088 24 20 C23.7497843 23.08365871 23.7497843 23.08365871 24 26 C24.49628906 25.4225 24.99257813 24.845 25.50390625 24.25 C31.10527817 18.1278174 31.10527817 18.1278174 35.9375 17.4375 C39 18 39 18 40 19 C40.45527819 22.28948743 40.69547137 24.85359092 38.92236328 27.77636719 C37.39046302 29.58946841 35.77367503 31.23044468 34.0625 32.875 C33.51787109 33.45507812 32.97324219 34.03515625 32.41210938 34.6328125 C27.9650225 39.03362911 24.19460426 39.98769342 18 40 C17.67 38.68 17.34 37.36 17 36 C15.68 36 14.36 36 13 36 C13.05542969 34.94941406 13.11085938 33.89882813 13.16796875 32.81640625 C13.39007711 24.28326887 13.39007711 24.28326887 9.51953125 16.96875 C6.7662793 14.7746967 4.00458065 12.83032208 1 11 C0.67 10.67 0.34 10.34 0 10 C0 6.7 0 3.4 0 0 Z M3 3 C4.92255661 8.76766983 5.34567183 9.89157681 9.75 13.375 C10.59046875 14.06335937 11.4309375 14.75171875 12.296875 15.4609375 C15.59900826 17.34105384 17.25353287 17.6027135 21 17 C24.04649829 15.25534612 24.04649829 15.25534612 26.8125 12.8125 C27.76769531 12.03519531 28.72289063 11.25789063 29.70703125 10.45703125 C32.46997394 7.92793904 32.46997394 7.92793904 33 3 C23.1 3 13.2 3 3 3 Z M16 20 C16 23.3 16 26.6 16 30 C17.32 30.33 18.64 30.66 20 31 C21.26026798 28.47946405 20.91874445 27.1457902 20.5625 24.375 C20.40974609 23.14910156 20.40974609 23.14910156 20.25390625 21.8984375 C20.17011719 21.27195312 20.08632813 20.64546875 20 20 C18.68 20 17.36 20 16 20 Z M18 31 C19 34 19 34 19 34 Z " fill="#000000" transform="translate(6,6)"/>
</svg>
