<?xml version="1.0" encoding="UTF-8"?>
<svg version="1.1" xmlns="http://www.w3.org/2000/svg" width="48" height="48">
<path d="M0 0 C4.43118719 2.13646525 7.2290203 4.37577522 9 9 C9.72425436 18.01294316 9.72425436 18.01294316 8.23828125 22.08984375 C8.12033203 23.03537109 8.12033203 23.03537109 8 24 C9.64934314 26.10542606 9.64934314 26.10542606 11.9375 28 C14.21484375 30 14.21484375 30 16 32 C16 33.32 16 34.64 16 36 C13.06186245 35.91096553 11.3898896 35.36987295 9.25 33.33984375 C8.05807544 32.04773588 6.88903532 30.73406899 5.74609375 29.3984375 C5.16988281 28.93695313 4.59367187 28.47546875 4 28 C2.05010659 28.21961249 2.05010659 28.21961249 0 29 C-5.30625711 29.48894514 -9.64209811 29.6547027 -14.5 27.3125 C-18.89443074 23.24765156 -20.18657624 20.53610427 -20.4375 14.5625 C-20.29099091 9.61448843 -19.44763149 6.72716917 -16 3 C-11.49597957 -1.09456403 -5.75025959 -0.7599462 0 0 Z M-15 8 C-16.72869779 11.45739557 -16.48966895 15.21975568 -16 19 C-14.20606332 21.87029869 -13.01736724 23.49131638 -10 25 C-5.36786507 25.55512815 -2.01827873 25.6364242 2 23.125 C5.32530877 19.59185943 5.33074386 16.95338737 5.29296875 12.26171875 C4.86344199 8.9457722 3.39075646 7.25012373 1 5 C-4.70452401 2.147738 -10.73693325 3.47049158 -15 8 Z " fill="#000000" transform="translate(26,6)"/>
</svg>
