<?xml version="1.0" encoding="UTF-8"?>
<svg version="1.1" xmlns="http://www.w3.org/2000/svg" width="48" height="48">
<path d="M0 0 C15.84 0 31.68 0 48 0 C48 15.84 48 31.68 48 48 C32.16 48 16.32 48 0 48 C0 32.16 0 16.32 0 0 Z " fill="#FBFBFB" transform="translate(0,0)"/>
<path d="M0 0 C15.84 0 31.68 0 48 0 C48 15.84 48 31.68 48 48 C32.16 48 16.32 48 0 48 C0 32.16 0 16.32 0 0 Z M7.58984375 11.59375 C3.81042769 16.90389729 3.28023551 22.66815879 4 29 C5.90337175 35.67998622 10.14160976 39.52346041 16 43 C21.72844829 44.90948276 27.77562505 44.91185715 33.3125 42.375 C38.10628358 39.6246272 40.95866171 36.23143919 43.3125 31.1875 C44.74380718 24.55143943 44.78000602 18.8985323 41.41015625 12.859375 C38.22515928 8.65976681 33.97329456 5.65776485 29 4 C20.02575291 2.83776144 13.67091723 4.72095782 7.58984375 11.59375 Z " fill="#FCFCFC" transform="translate(0,0)"/>
<path d="M0 0 C5.65967804 2.5823626 8.92615463 6.22294208 11.9921875 11.625 C13.71746897 18.36928212 13.02848866 24.06607575 9.94921875 30.30078125 C7.0878318 34.83497904 2.90510354 38.00614599 -2.3203125 39.3125 C-9.08518944 40.07457453 -14.81721282 39.56650211 -20.3203125 35.3125 C-25.40199933 29.81010707 -27.66140051 25.2259287 -27.52734375 17.71875 C-27.02653916 11.89807778 -25.27905348 7.83373932 -20.8828125 3.9375 C-14.56456426 -1.1227525 -7.88478178 -2.33623164 0 0 Z M-20.6328125 8.8125 C-24.24648065 13.13752015 -24.69372478 16.71131576 -24.3203125 22.3125 C-22.49091466 28.44636335 -19.37943986 31.67968084 -14.3203125 35.3125 C-10.26509492 37.34010879 -5.34878401 36.93418566 -1.08984375 35.62890625 C3.681693 33.47141965 6.17308689 31.02490914 8.6796875 26.3125 C10.3067458 21.4313251 10.09111935 17.56844987 8.4921875 12.6875 C6.01451278 8.0738988 3.60929705 5.19340871 -1.1953125 3 C-9.42298745 1.18991151 -15.007541 2.47737281 -20.6328125 8.8125 Z " fill="#B6B6B6" transform="translate(31.3203125,4.6875)"/>
<path d="M0 0 C4.62261525 2.68624254 7.94959263 5.98509701 9.4375 11.25 C9.499375 11.95125 9.56125 12.6525 9.625 13.375 C8.635 13.375 7.645 13.375 6.625 13.375 C5.23199818 11.41609119 3.90254554 9.4110882 2.625 7.375 C0.1309627 4.2007707 -2.48628347 3.34717913 -6.375 2.375 C-11.63730149 1.90515165 -14.9326146 2.47779213 -19.375 5.375 C-21.76836273 7.79416718 -23.84442789 10.31385577 -25.375 13.375 C-26.365 13.375 -27.355 13.375 -28.375 13.375 C-27.95223809 8.5836984 -25.77242654 5.6043247 -22.375 2.375 C-15.65262511 -2.73400492 -7.80217214 -3.51024002 0 0 Z " fill="#161616" transform="translate(33.375,5.625)"/>
</svg>
